<svg id="Capa_1" data-name="Capa 1" xmlns="http://www.w3.org/2000/svg" viewBox="0 0 100 100"><defs><style>.cls-1{fill:#fff;stroke:#1d1d1b;stroke-miterlimit:10;stroke-width:3px;}</style></defs><circle class="cls-1" cx="50" cy="50" r="48.5"/><path d="M575.55,422.35c5.8-2.15,11.64-3.39,17.79-2.13-6-2.18-12.06-2.11-18.22-.67a38.61,38.61,0,0,1,11-5.24c-1.38-.32-6.46.89-11.35,2.91a58.93,58.93,0,0,0-10.32,5.88,33.06,33.06,0,0,1,5.87-8.13,55.1,55.1,0,0,1,7.55-6.6,6.79,6.79,0,0,0-1.69.93,67.15,67.15,0,0,0-6,4.46c-1.64,1.37-3.15,2.85-4.69,4.32-1.9,1.81-3.68,3.72-5.44,5.66s-3.28,3.61-4.81,5.51c-.38.46-.88.81-1.25,1.31a4.07,4.07,0,0,1,.58-1.94c.63-1.31,1.28-2.62,2-3.88a60,60,0,0,1,4.83-7.1,86,86,0,0,1,8.16-9,76.34,76.34,0,0,1,7.22-6.24,56.23,56.23,0,0,1,7.12-4.71c.58-.32.69-.59.41-1.2a21.71,21.71,0,0,1-1.43-12.78,32.15,32.15,0,0,1,1.69-5.45c.19-.53.44-.43.68,0s.62,1,.91,1.49a14.92,14.92,0,0,0,6.27,5.64,67.76,67.76,0,0,0,12.48,4.77c3.8,1.14,7.64,2.19,11.38,3.53a14.43,14.43,0,0,1,7,5,15.65,15.65,0,0,1,3.16,8.58,19.23,19.23,0,0,1,0,3.22,2.52,2.52,0,0,0,.6,2,17.06,17.06,0,0,1,2.45,4.76,17.57,17.57,0,0,1,1.25,6.36c0,1.05-.05,1.12-1,1.39a47.75,47.75,0,0,1-10.22,1.55,42,42,0,0,1-5.5-.16.85.85,0,0,0-1,.64,12.26,12.26,0,0,0-.79,5.67,15.5,15.5,0,0,0,.77,3.05c.41,1.33.41,1.36-.94,1.59a11.88,11.88,0,0,1-6.56-1.13,15.74,15.74,0,0,1-5-3.47,38.9,38.9,0,0,1-2.69-3.34,26,26,0,0,0-7.73-6.37,11.48,11.48,0,0,0-5.09-1.08,36,36,0,0,0-9,.62A.33.33,0,0,1,575.55,422.35Zm29.46-17a6.32,6.32,0,0,1,1.57,1.48.87.87,0,0,1,.2.68c-.44,3,2.15,4.63,4.68,4.21a2.05,2.05,0,0,0,1.41-.71c.39-.57.77-1,1.58-.87C611.8,407.47,608.48,406.24,605,405.36Zm17.43,13.43a15.4,15.4,0,0,0-2.38-2.54c-1.33-1.17-2.26-1.24-3.38-.39-.35.26-.41.45.05.63Z" transform="translate(-543 -361)"/><path d="M610.22,408.58a.71.71,0,0,0,.34.88.74.74,0,0,0,1-.19c.15-.18.28-.37.54-.15a.53.53,0,0,1,.21.64,1.41,1.41,0,0,1-1.26,1.05,2.5,2.5,0,0,1-2.74-2.62c0-.11,0-.27.08-.31.54-.33,1,.09,1.52.14C610.21,408.06,610.35,408.27,610.22,408.58Z" transform="translate(-543 -361)"/></svg>