<svg xmlns="http://www.w3.org/2000/svg" viewBox="0 0 441.66 442.23"><title>Recurso 1mdpi</title><g id="Capa_2" data-name="Capa 2"><g id="Capa_1-2" data-name="Capa 1"><path d="M189.79,241.47c0,12.19.2,24.38,0,36.57-.63,31.21,26.3,49.25,54.37,47.29,17.84-1.25,32.05-9,44.21-22.38,27.87-30.57,56.77-60.21,84.7-90.73,12.62-13.79,27.14-20.24,45.92-19,22.1,1.41,23-5,22.67,22.55-1.06,97-45.59,168-133.72,206.94-76.19,33.64-150.71,23.1-219-25.53-29.29-20.85-50.41-48.61-66.66-80.39-2.84-5.56-1.75-7.79,4.47-7.84,8.79-.08,17.67.4,26.34-.72,14.25-1.82,26.24-8.75,36-19.26q42.32-45.42,84.5-91c1-1,1.92-2.09,2.93-3.08,2.6-2.57,5-5.91,9.37-3.9,3.75,1.72,3.79,5.37,3.81,8.79.05,13.89,0,27.78,0,41.68Z"/><path d="M250.14,200c-.81-12.81,1.18-28.4-1.25-43.94-4-25.76-28.88-44-55-40a70.77,70.77,0,0,0-42.55,22.79c-29.13,31.72-58.63,63.1-88,94.63-9.42,10.11-21,15.13-34.82,14.88-4.25-.08-8.51,0-12.76,0C1.17,248.37,1,248.19.27,233.16-5.21,119.66,72.87,22.35,184.9,3.05c94.37-16.26,192.07,33.77,234,119.82,4.26,8.76,3.83,9.51-5.8,9.62-6,.06-11.91.1-17.86,0-16.77-.25-31.13,5.41-42.65,17.66q-44.25,47.07-88.39,94.26c-2.79,3-5.35,7.59-10.44,5.37s-3.51-7.25-3.55-11.33C250.05,226.56,250.14,214.65,250.14,200Z"/></g></g></svg>